<?xml version="1.0" encoding="UTF-8"?>
<svg version="1.1" xmlns="http://www.w3.org/2000/svg" width="3000" height="3000">
<path d="M0 0 C1.75637002 -0.00297805 3.51273822 -0.00727056 5.26910222 -0.01274834 C10.09812162 -0.02400235 14.92695934 -0.0166085 19.75597392 -0.00617849 C25.02814577 0.00188005 30.30029173 -0.00753042 35.57246089 -0.01468903 C44.84905225 -0.02487219 54.12559077 -0.02387201 63.40218329 -0.0156384 C77.28959643 -0.00336796 91.17696664 -0.00838352 105.06438075 -0.01678632 C128.73140509 -0.03059678 152.3984094 -0.03015161 176.06543541 -0.02194369 C200.05526175 -0.01366862 224.04507547 -0.01192024 248.03490257 -0.01815569 C249.1695992 -0.01844601 249.1695992 -0.01844601 250.32721898 -0.01874218 C257.2596904 -0.02051678 264.1921618 -0.02235849 271.12463318 -0.02428082 C288.50898112 -0.02909357 305.8933292 -0.03286144 323.27767754 -0.03592193 C324.07431792 -0.03606264 324.8709583 -0.03620334 325.69173929 -0.03634831 C364.96935875 -0.04318599 404.24697595 -0.03857557 443.52459526 -0.03283846 C445.24533881 -0.03258755 446.96608235 -0.03233666 448.68682589 -0.03208578 C449.53963091 -0.03196141 450.39243592 -0.03183704 451.27108351 -0.03170891 C462.51717546 -0.03006937 473.7632674 -0.02845955 485.00935936 -0.02692902 C485.868984 -0.02681154 486.72860865 -0.02669405 487.61428252 -0.02657301 C527.43765779 -0.02117095 567.26103192 -0.02245416 607.08440735 -0.02522039 C611.42792103 -0.02551978 615.77143472 -0.02580628 620.11494841 -0.02609421 C633.20660079 -0.02696597 646.29825318 -0.02785679 659.38990556 -0.02878701 C699.31264023 -0.0316207 739.23537491 -0.03342135 779.15810966 -0.03433192 C780.04704681 -0.03435252 780.93598395 -0.03437313 781.85185858 -0.03439436 C839.42788081 -0.03571073 897.00390178 -0.03240754 954.57992363 -0.02578318 C955.49917781 -0.02567783 956.41843199 -0.02557247 957.36554236 -0.02546392 C988.15671197 -0.0219348 1018.94788156 -0.01816663 1049.73905114 -0.01437403 C1142.85463367 -0.0029126 1235.97021166 0.0033682 1402.26187788 -0.01472003 C1433.04524094 -0.01850961 1463.828604 -0.02225513 1494.61196709 -0.02578318 C1495.53096187 -0.02588892 1496.44995666 -0.02599465 1497.39679977 -0.02610359 C1554.94246037 -0.0327188 1612.48812008 -0.03566581 1670.03378105 -0.03433192 C1670.92242431 -0.03431165 1671.81106756 -0.03429138 1672.7266394 -0.0342705 C1712.62715068 -0.03335036 1752.52766186 -0.03143551 1792.42817305 -0.02860041 C1805.51407744 -0.02767175 1818.59998184 -0.02678875 1831.68588624 -0.02592126 C1836.02689549 -0.02563329 1840.36790473 -0.02534122 1844.70891398 -0.02503969 C1884.53345367 -0.02228183 1924.35799185 -0.02148629 1964.18253136 -0.02692902 C1965.04161179 -0.02704594 1965.90069223 -0.02716285 1966.78580541 -0.02728331 C1978.02555856 -0.02881872 1989.26531169 -0.03044665 2000.50506482 -0.03208578 C2001.35719826 -0.03221002 2002.2093317 -0.03233426 2003.08728736 -0.03246226 C2004.8064709 -0.03271294 2006.52565444 -0.03296384 2008.24483797 -0.03321495 C2047.46796391 -0.03892916 2086.69108716 -0.04284959 2125.91421318 -0.03592193 C2126.70980631 -0.03578187 2127.50539943 -0.0356418 2128.32510144 -0.0354975 C2145.68085197 -0.03240729 2163.0366022 -0.02844872 2180.39235235 -0.02363608 C2187.31389759 -0.02172836 2194.23544286 -0.01992657 2201.15698814 -0.01815569 C2202.28953138 -0.01786132 2202.28953138 -0.01786132 2203.44495428 -0.017561 C2227.40482483 -0.0113825 2251.36468236 -0.01439652 2275.32455195 -0.02270601 C2299.56224937 -0.03107002 2323.79992177 -0.02908586 2348.03761681 -0.01442045 C2361.83353367 -0.00639224 2375.62939166 -0.00662042 2389.42530575 -0.01886524 C2398.57617821 -0.02617201 2407.72700464 -0.02268983 2416.87787151 -0.01026468 C2422.07259392 -0.00351715 2427.26719873 -0.00149435 2432.46191606 -0.01271423 C2437.17559704 -0.02280761 2441.88905826 -0.01909117 2446.60272529 -0.00439011 C2448.29269015 -0.00152466 2449.98267299 -0.00365537 2451.67262223 -0.01146711 C2472.63530547 -0.10166454 2489.11550625 5.56544387 2504.48266411 20.16901624 C2519.06745205 35.54039949 2522.20406547 53.25967478 2522.10210323 73.54688203 C2522.10658429 75.59006611 2522.11281538 77.63324696 2522.12062857 79.67642102 C2522.1370172 85.28897841 2522.12855944 90.90126399 2522.11601694 96.51382113 C2522.10676825 102.62068414 2522.12069746 108.72750178 2522.13165611 114.83435589 C2522.14764464 125.53689255 2522.14886926 136.23934043 2522.14005852 146.94187772 C2522.13067212 158.42269254 2522.12998237 169.90345892 2522.13984299 181.38427389 C2522.14046016 182.11008868 2522.14107733 182.83590347 2522.1417132 183.58371265 C2522.14425473 186.53997064 2522.14685655 189.49622858 2522.14953522 192.45248645 C2522.17668689 222.44729409 2522.1781333 252.44206461 2522.1695772 282.43688082 C2522.1684042 286.58016779 2522.16727106 290.72345478 2522.16617894 294.86674178 C2522.1659618 295.68971799 2522.16574466 296.5126942 2522.16552094 297.36060908 C2522.16088687 315.60473288 2522.16431351 333.84885252 2522.16944545 352.09297585 C2522.17014779 354.59041583 2522.17083278 357.0878558 2522.17151259 359.58529578 C2522.17333804 366.28021004 2522.17518361 372.9751243 2522.17706536 379.67003855 C2522.18228979 398.38525942 2522.18610212 417.10048044 2522.18877125 435.81570184 C2522.18889279 436.66795154 2522.18901434 437.52020123 2522.18913957 438.39827667 C2522.19290317 465.55460718 2522.19031309 492.71093337 2522.18353176 519.8672632 C2522.18331321 520.74804454 2522.18309465 521.62882589 2522.18286947 522.53629758 C2522.1804243 532.35780487 2522.1778544 542.17931212 2522.17523409 552.00081936 C2522.17499755 552.88754626 2522.17476101 553.77427317 2522.1745173 554.68787058 C2522.17355992 558.27386172 2522.17260237 561.85985286 2522.17163715 565.445844 C2522.15638985 622.16584257 2522.1643813 678.88579064 2522.19286919 735.60578382 C2522.20003385 749.8981895 2522.2071365 764.19059521 2522.21385098 778.48300111 C2522.2144723 779.80308109 2522.2144723 779.80308109 2522.21510618 781.14982934 C2522.22779096 808.27522455 2522.23429798 835.40061554 2522.2342577 862.52601373 C2522.2342569 863.37767753 2522.23425609 864.22934133 2522.23425527 865.10681313 C2522.23417107 883.80310799 2522.23253125 902.49940246 2522.22947688 921.19569706 C2522.22839298 927.885562 2522.22740169 934.57542694 2522.22644601 941.26529189 C2522.22620593 942.92953858 2522.22595954 944.59378527 2522.2257068 946.25803195 C2522.22171414 972.76969579 2522.23169226 999.28133096 2522.24841105 1025.79298909 C2522.2655815 1053.23804206 2522.26410564 1080.68303839 2522.24150503 1108.12808815 C2522.23914854 1111.07659802 2522.23687164 1114.02510794 2522.23465729 1116.97361791 C2522.23410658 1117.69722407 2522.23355587 1118.42083023 2522.23298848 1119.16636384 C2522.2247254 1130.61390621 2522.2331855 1142.06137215 2522.24863549 1153.50890449 C2522.26348062 1164.77126234 2522.25998559 1176.03349932 2522.23840109 1187.29585673 C2522.2273682 1193.31786578 2522.22420637 1199.33959348 2522.24307639 1205.36158941 C2522.26009265 1210.84450514 2522.2539315 1216.32689708 2522.22961054 1221.80978082 C2522.22488393 1223.77653795 2522.2284481 1225.7433379 2522.24152957 1227.71005721 C2522.37106971 1248.6435069 2517.362835 1265.48908628 2502.59594536 1280.87604749 C2491.63808369 1291.17643746 2477.48059799 1298.62376394 2462.18304539 1298.62775316 C2461.46495581 1298.63066751 2460.74686623 1298.63358185 2460.00701635 1298.6365845 C2457.59973413 1298.64391503 2455.19270638 1298.63701782 2452.78542572 1298.63019782 C2451.03250668 1298.63255803 2449.27958864 1298.63579426 2447.52667264 1298.63982609 C2442.68393753 1298.64840277 2437.84127958 1298.64446547 2432.9985434 1298.63857844 C2427.72011904 1298.63436248 2422.44170889 1298.6417377 2417.16328791 1298.64764205 C2407.86787382 1298.6564237 2398.57248156 1298.65771492 2389.27706433 1298.65420776 C2375.36132537 1298.64899009 2361.44560778 1298.65522707 2347.52987128 1298.66372124 C2323.81639267 1298.67784888 2300.10292103 1298.68240353 2276.38943863 1298.6817497 C2252.34752069 1298.68111268 2228.3056092 1298.68478493 2204.26369286 1298.69372976 C2202.73163638 1298.69429529 2201.19957991 1298.69486073 2199.66752344 1298.69542608 C2193.49039698 1298.69771369 2187.31327053 1298.70003329 2181.1361441 1298.70238938 C2163.72212392 1298.70902189 2146.30810352 1298.71490396 2128.8940829 1298.72026491 C2127.69699083 1298.72063353 2127.69699083 1298.72063353 2126.47571509 1298.7210096 C2080.20031663 1298.7351679 2033.92491708 1298.73843263 1987.64951683 1298.74191653 C1981.57329153 1298.74237453 1975.49706624 1298.74283361 1969.42084094 1298.74329551 C1967.68078324 1298.74342734 1965.94072554 1298.74355839 1964.20066784 1298.74368864 C1926.0316082 1298.74654762 1887.86254933 1298.75248894 1849.69349019 1298.75913708 C1833.11733542 1298.76202208 1816.54118063 1298.76479981 1799.96502584 1298.76757616 C1798.66367732 1298.76779436 1798.66367732 1298.76779436 1797.33603892 1298.76801697 C1755.58062809 1298.77501433 1713.82521717 1298.78124177 1672.0698061 1298.78659379 C1671.17907902 1298.78670804 1670.28835194 1298.78682228 1669.37063313 1298.78693998 C1612.60215178 1298.79419869 1555.83367076 1298.79792054 1499.06518897 1298.79930258 C1494.41061543 1298.79941689 1489.75604189 1298.79953691 1485.10146835 1298.79965616 C1469.22270835 1298.80006087 1453.34394835 1298.80044434 1437.46518835 1298.80082678 C1429.96821213 1298.80100756 1422.4712359 1298.80119133 1414.97425968 1298.80137699 C1410.28312611 1298.80149301 1405.59199253 1298.80160729 1400.90085896 1298.80171778 C1312.29803827 1298.80381066 1223.69522276 1298.81055884 1135.09240532 1298.83594739 C1133.69324785 1298.83634812 1133.69324785 1298.83634812 1132.26582458 1298.83675695 C1103.12187708 1298.84511898 1073.97792976 1298.85405983 1044.83398247 1298.86310804 C1014.93041076 1298.87239037 985.02683904 1298.88159135 955.12326717 1298.89032876 C954.20253015 1298.8905981 953.28179313 1298.89086743 952.33315498 1298.89114493 C894.67317789 1298.90798604 837.01320225 1298.91877043 779.35322285 1298.92305315 C778.46272884 1298.92311998 777.57223482 1298.92318682 776.65475614 1298.92325569 C737.54707046 1298.92618161 698.43938482 1298.92774552 659.33169902 1298.92781086 C643.59872502 1298.92783984 627.86575103 1298.92802244 612.13277703 1298.92827159 C609.52415247 1298.92831073 606.91552791 1298.9283433 604.30690335 1298.92837456 C564.4010123 1298.92888422 524.49512666 1298.93319025 484.58923841 1298.94888031 C483.72853365 1298.94921836 482.8678289 1298.9495564 481.98104219 1298.94990469 C468.13533856 1298.95536256 454.28963506 1298.96111953 440.44393157 1298.9669079 C401.14052545 1298.98332913 361.83712621 1298.99715592 322.53371608 1298.99309206 C321.73628279 1298.99301061 320.9388495 1298.99292916 320.11725156 1298.99284524 C302.720148 1298.99101534 285.32304498 1298.98778749 267.92594194 1298.98318889 C260.9875638 1298.98137581 254.04918562 1298.97974553 247.11080742 1298.97817266 C246.35394612 1298.97799612 245.59708482 1298.97781958 244.81728834 1298.97763769 C220.80976274 1298.97212455 196.80227644 1298.98197612 172.79475841 1299.00070935 C148.50285889 1299.01959826 124.21102506 1299.02125103 99.91912424 1299.00185489 C86.09634684 1298.99135387 72.27373605 1298.99460206 58.45097349 1299.01797365 C49.27717349 1299.03212417 40.10349713 1299.02822428 30.9297056 1299.00949216 C25.7251432 1298.99937443 20.52090855 1298.99704606 15.3163669 1299.01692771 C10.58903309 1299.03484038 5.86230187 1299.02951835 1.13499729 1299.00610135 C-0.55537212 1299.00170702 -2.24579004 1299.0055509 -3.93611165 1299.01900073 C-23.75367441 1299.16602079 -39.33585141 1293.56340488 -54.04858589 1279.83307874 C-65.70011579 1267.67916115 -72.57603207 1253.01465053 -72.53400648 1236.14315087 C-72.53685534 1234.89699399 -72.53685534 1234.89699399 -72.53976175 1233.62566223 C-72.54493598 1230.82403608 -72.54296817 1228.02245996 -72.54106903 1225.22083032 C-72.5433247 1223.190385 -72.54601594 1221.15994012 -72.54910487 1219.12949589 C-72.55635621 1213.5150881 -72.55733414 1207.90069366 -72.55732764 1202.28628182 C-72.55839512 1196.19123982 -72.56518333 1190.09620381 -72.57123435 1184.00116509 C-72.58102927 1173.30698062 -72.58706054 1162.61279978 -72.59055138 1151.91861188 C-72.59430477 1140.44090088 -72.60017693 1128.96319397 -72.60862923 1117.48548543 C-72.60916032 1116.76112006 -72.60969142 1116.03675469 -72.6102386 1115.29043885 C-72.61240529 1112.34029384 -72.61458192 1109.39014883 -72.61677254 1106.44000384 C-72.64328357 1070.66365329 -72.65884132 1034.88730056 -72.67193543 999.11094294 C-72.67618501 987.50949302 -72.68075264 975.90804326 -72.68551874 964.30659354 C-72.71042712 903.53452228 -72.7324901 842.76245057 -72.74470912 781.99037531 C-72.74560649 777.54128505 -72.7465212 773.0921948 -72.74743686 768.64310454 C-72.74761847 767.76054396 -72.74780008 766.87798338 -72.7479872 765.96867854 C-72.74982988 757.02706228 -72.75169574 748.08544603 -72.75358529 739.14382978 C-72.75396334 737.35100598 -72.75433963 735.55818217 -72.75471417 733.76535837 C-72.76674308 676.19184906 -72.79642923 618.61836998 -72.83812929 561.04487491 C-72.86808057 519.68004905 -72.89570824 478.3152294 -72.90540695 436.95039308 C-72.90560751 436.09962419 -72.90580806 435.24885531 -72.9060147 434.37230554 C-72.9103654 415.69525588 -72.91331108 397.01820625 -72.91494121 378.34115617 C-72.91561756 370.82609706 -72.91647308 363.31103798 -72.91737938 355.7959789 C-72.91747348 354.97350374 -72.91756757 354.15102859 -72.91766452 353.30362994 C-72.92077619 326.81406263 -72.93928185 300.32453379 -72.96572935 273.83498035 C-72.99228417 247.14996392 -73.00301738 220.46499041 -72.99199336 193.77996161 C-72.99047187 190.0906482 -72.98912643 186.40133475 -72.98788643 182.71202123 C-72.9876367 181.98882795 -72.98738697 181.26563468 -72.98712967 180.52052645 C-72.98363768 169.07940541 -72.99693246 157.63836824 -73.01726416 146.19726733 C-73.03691868 134.94096919 -73.03825957 123.68478402 -73.02153788 112.42847069 C-73.01311355 106.40955161 -73.01258873 100.3909189 -73.03414933 94.37202617 C-73.05362257 88.89182997 -73.049896 83.41214855 -73.02799585 77.93196598 C-73.02414516 75.96616749 -73.02859798 74.00032974 -73.04258286 72.03457722 C-73.17552035 52.04684274 -68.75991641 34.50016587 -54.62280464 19.46589124 C-38.69195327 4.4605999 -21.26031759 -0.09827524 0 0 Z " fill="#000000" transform="translate(275.40405464172363,850.6239525079727)"/>
<path d="M0 0 C0.66 0 1.32 0 2 0 C2.33 27.72 2.66 55.44 3 84 C5.31 79.38 7.62 74.76 10 70 C14.88405277 62.24753528 20.09306278 54.99831419 26 48 C26.68707031 47.17757813 27.37414063 46.35515625 28.08203125 45.5078125 C47.78675161 22.71424409 77.05771526 7.40277555 107 4 C112.56579563 3.7058255 118.1150834 3.65956674 123.6875 3.6875 C124.44045349 3.68932281 125.19340698 3.69114563 125.96917725 3.69302368 C136.91959729 3.73770799 147.37163533 4.12653333 158 7 C158.9902417 7.25740967 158.9902417 7.25740967 160.00048828 7.52001953 C174.20026604 11.27552681 186.98878827 17.06869695 198 27 C198.68449219 27.59167969 199.36898438 28.18335938 200.07421875 28.79296875 C215.59549915 43.09450217 221.3266051 62.92597726 225 83 C225.70962891 81.38544922 225.70962891 81.38544922 226.43359375 79.73828125 C240.39450455 48.64011099 264.09158659 24.41398939 295.8125 11.625 C301.80162503 9.35001232 307.76432835 7.4550085 314 6 C314.76602539 5.81896729 315.53205078 5.63793457 316.32128906 5.45141602 C324.85409175 3.67104997 333.32830514 3.64646638 342 3.6875 C342.77490784 3.68899048 343.54981567 3.69048096 344.34820557 3.6920166 C360.86775102 3.74918799 376.3580904 5.21544475 392 11 C393.13824219 11.42023438 394.27648438 11.84046875 395.44921875 12.2734375 C415.61130593 20.30278355 431.08149907 34.67507861 440.6875 54.125 C445.15944927 64.68544776 448.04115386 75.74829803 449.13034058 87.15911865 C449.21323928 88.0166139 449.29613798 88.87410915 449.38154876 89.7575891 C450.30146829 100.16994722 450.26476978 110.57215005 450.22705078 121.01660156 C450.22648504 123.24612422 450.2268064 125.47564724 450.22793579 127.70516968 C450.22850394 133.69143129 450.2168378 139.6776109 450.20278788 145.66385365 C450.19018979 151.94449752 450.18910292 158.22514378 450.18673706 164.50579834 C450.18124954 175.02601424 450.1688017 185.54620513 450.15087891 196.06640625 C450.1324565 206.89127456 450.11833134 217.71613476 450.10986328 228.54101562 C450.10907511 229.54572542 450.10907511 229.54572542 450.10827102 230.57073238 C450.10566051 233.93171975 450.1031332 237.29270717 450.10064721 240.65369463 C450.0798053 268.43582183 450.04316259 296.21789789 450 324 C470.13 324 490.26 324 511 324 C511 328.29 511 332.58 511 337 C448.63 337 386.26 337 322 337 C322 332.71 322 328.42 322 324 C342.79 324 363.58 324 385 324 C384.93852182 291.7867912 384.86639322 259.57368791 384.77101372 227.36056635 C384.75974661 223.550762 384.74860799 219.7409573 384.73754883 215.93115234 C384.7342433 214.79353764 384.7342433 214.79353764 384.730871 213.63294083 C384.69557391 201.37999306 384.67066705 189.12704534 384.64965298 176.8740657 C384.62783028 164.28560985 384.59471895 151.69721953 384.55129844 139.10881948 C384.52489268 131.35164206 384.50711596 123.59454615 384.50065396 115.83732605 C384.49473756 109.87217606 384.47305587 103.90718549 384.44572449 97.94209099 C384.43698027 95.50741295 384.43321412 93.07271075 384.43499184 90.63801765 C384.44570674 69.17890728 383.83136832 47.9772989 369 31 C356.40277654 19.03516728 341.43766606 17.3903505 324.8671875 17.6953125 C300.82094499 18.63480083 281.05495145 30.72271143 264 47 C263.45504883 47.51868652 262.91009766 48.03737305 262.34863281 48.57177734 C246.0689426 64.40197365 235.47604058 86.44692746 229 108 C228.63434071 109.00275955 228.63434071 109.00275955 228.26129436 110.02577686 C225.13768406 119.54448927 225.55866865 129.16768318 225.56762695 139.06713867 C225.55859909 141.088446 225.54826937 143.10974786 225.53674316 145.13104248 C225.50926744 150.59097541 225.49990146 156.05080418 225.49388909 161.51079726 C225.48448084 167.2269918 225.45827549 172.94310929 225.43388367 178.65925598 C225.39028235 189.47136912 225.36169627 200.28346725 225.33856028 211.09564143 C225.31147446 223.41009612 225.26756504 235.72447305 225.22227156 248.03887212 C225.12951644 273.35921716 225.06001441 298.67955473 225 324 C245.13 324 265.26 324 286 324 C286 328.29 286 332.58 286 337 C224.29 337 162.58 337 99 337 C99 332.71 99 328.42 99 324 C119.13 324 139.26 324 160 324 C159.91648532 291.35356713 159.82593086 258.70718917 159.71994839 226.06082355 C159.7074303 222.20208898 159.6949974 218.34335415 159.68261719 214.48461914 C159.6789182 213.33236628 159.6789182 213.33236628 159.67514448 212.15683558 C159.63547683 199.73696583 159.60270304 187.31708705 159.57250018 174.89719108 C159.54132921 162.14265131 159.50269589 149.38814969 159.45720994 136.63365287 C159.42940091 128.77053471 159.40733521 120.90744429 159.39273749 113.04429033 C159.38089763 107.00347579 159.35864931 100.96274415 159.33261681 94.92197227 C159.32357849 92.4521675 159.31785959 89.9823479 159.31578636 87.51252747 C159.34801366 56.67607015 159.34801366 56.67607015 145 30 C133.18804185 18.92105344 120.08741979 17.39359504 104.60546875 17.69921875 C77.63658379 18.80230561 54.47537753 35.22448494 36.46875 54.15625 C20.61961381 71.39871685 2.87081773 98.33615368 2.84178162 122.33317566 C2.83684364 123.19328493 2.83190566 124.0533942 2.82681805 124.93956739 C2.81141451 127.83234958 2.80307469 130.72510952 2.79467773 133.61791992 C2.78510146 135.68730364 2.77509153 137.75668539 2.76467896 139.82606506 C2.73759671 145.45379455 2.71660512 151.08153246 2.69667697 156.70929122 C2.67483788 162.58699697 2.64743904 168.46467669 2.62062073 174.34236145 C2.57066572 185.47702743 2.52573731 196.61170784 2.48259836 207.74640208 C2.43324997 220.42097564 2.37832296 233.09552308 2.32291877 245.77007139 C2.20905561 271.84669111 2.10296252 297.9233348 2 324 C21.47 324 40.94 324 61 324 C61 328.29 61 332.58 61 337 C-0.05 337 -61.1 337 -124 337 C-124 332.71 -124 328.42 -124 324 C-103.87 324 -83.74 324 -63 324 C-63 227.97 -63 131.94 -63 33 C-83.13 33 -103.26 33 -124 33 C-124 28.71 -124 24.42 -124 20 C-122.99792007 19.99413376 -121.99584015 19.98826752 -120.96339417 19.98222351 C-111.44719359 19.92462025 -101.93121334 19.85166844 -92.41523838 19.76428509 C-87.52480835 19.7198544 -82.63445642 19.68054089 -77.74389648 19.65356445 C-73.01043866 19.62725559 -68.27728598 19.58666642 -63.5440197 19.53681374 C-61.7522764 19.52032908 -59.96048056 19.50870181 -58.16867256 19.50238609 C-49.2489737 19.4678141 -40.5370467 19.17970911 -31.73022461 17.67114258 C-31.05841691 17.55749454 -30.38660921 17.44384649 -29.6944437 17.32675457 C-18.98145846 15.27735554 -8.90961652 9.43857236 -1 2 C-0.67 1.34 -0.34 0.68 0 0 Z " fill="#FDFDFD" transform="translate(1601,1205)"/>
<path d="M0 0 C3.10412397 0.01066626 6.20766168 0.00007373 9.31176758 -0.01269531 C44.0542736 -0.03680567 81.21225042 4.09735848 109.4387207 26.26074219 C110.13223633 26.79054688 110.82575195 27.32035156 111.5402832 27.86621094 C126.95449468 40.3939774 134.76514297 60.03441061 137.4387207 79.26074219 C137.53087147 82.1438765 137.57638855 85.00235732 137.57002258 87.88497925 C137.57319615 89.16817981 137.57319615 89.16817981 137.57643384 90.47730362 C137.58241405 93.33725835 137.58143508 96.1971687 137.58056641 99.05712891 C137.58359935 101.11084569 137.58712119 103.1645618 137.59109497 105.21827698 C137.59897617 109.6396581 137.60412606 114.06103117 137.60738564 118.48241806 C137.61330807 125.4855469 137.62986185 132.48862524 137.64872742 139.49172974 C137.65506478 141.89237019 137.6613904 144.29301068 137.66770458 146.6936512 C137.67087039 147.89592173 137.6740362 149.09819226 137.67729795 150.33689523 C137.71931029 166.63604612 137.75232517 182.93517359 137.76464844 199.234375 C137.7730503 210.23411081 137.79562117 221.23372152 137.8340041 232.23339474 C137.85369617 238.04768463 137.8661922 243.86178779 137.86116982 249.67611313 C137.85649557 255.15424176 137.87047954 260.63201743 137.89818192 266.110075 C137.90504769 268.10936893 137.90527061 270.10869973 137.89798164 272.10799217 C137.84596907 287.9915105 138.37012478 305.90740215 149.8762207 318.13574219 C154.12470542 322.37436963 158.18295291 323.5078815 164.16137695 323.6418457 C172.55847764 323.61732146 178.16525188 323.13986078 184.51293945 317.37792969 C191.98349968 309.67261988 195.30119567 300.33384886 198.4387207 290.26074219 C201.7387207 290.26074219 205.0387207 290.26074219 208.4387207 290.26074219 C204.87294525 306.79297382 197.89982663 322.55912253 183.49731445 332.23730469 C165.04671799 342.87752596 141.24887638 344.62859837 120.6652832 339.28027344 C103.32057605 333.46735098 89.05712822 325.09356937 80.4387207 308.26074219 C77.310997 301.3699759 74.88482132 294.84445274 74.4387207 287.26074219 C73.88700195 287.96585938 73.3352832 288.67097656 72.7668457 289.39746094 C68.97220673 294.06435753 64.86572887 298.43890324 60.76245117 302.83300781 C59.66224351 304.01965747 58.58114939 305.223994 57.50512695 306.43261719 C40.25971511 325.02232617 11.42455571 337.59235204 -13.5612793 340.26074219 C-14.50100586 340.3703125 -15.44073242 340.47988281 -16.40893555 340.59277344 C-51.65158561 344.00335248 -94.22325919 341.27599247 -123.5612793 319.26074219 C-124.48038086 318.58398438 -125.39948242 317.90722656 -126.34643555 317.20996094 C-140.49811775 306.25068022 -151.29811983 290.64123463 -154.1237793 272.68652344 C-154.72041077 267.56948929 -154.7074115 262.46893394 -154.6862793 257.32324219 C-154.69014648 256.38544922 -154.69401367 255.44765625 -154.69799805 254.48144531 C-154.68571262 245.64208398 -154.1613084 237.6703916 -150.9362793 229.38574219 C-150.67049072 228.69593262 -150.40470215 228.00612305 -150.13085938 227.29541016 C-145.88262731 216.67792005 -139.41776076 208.47433644 -131.5612793 200.26074219 C-130.94768555 199.57238281 -130.3340918 198.88402344 -129.7019043 198.17480469 C-123.88390808 191.88440707 -116.89049832 187.55825477 -109.5612793 183.26074219 C-108.6000415 182.69371582 -108.6000415 182.69371582 -107.61938477 182.11523438 C-84.65553308 168.77329921 -58.95061506 162.13218664 -32.97241211 157.65625 C-30.72489065 157.26742207 -28.47906303 156.86970133 -26.2331543 156.47167969 C-8.77748073 153.42516217 8.75540418 151.97152241 26.42675781 150.828125 C29.37075499 150.6360987 32.31386142 150.43306338 35.25708008 150.22949219 C37.20169745 150.10121798 39.14635776 149.97359262 41.09106445 149.84667969 C41.93442856 149.78733246 42.77779266 149.72798523 43.64671326 149.6668396 C53.23459038 149.0678821 62.83690409 149.21099662 72.4387207 149.26074219 C72.37730693 137.34214688 72.30005581 125.4237669 72.20300579 113.50540543 C72.15842225 107.97025276 72.11913997 102.43517167 72.09228516 96.89990234 C72.06613192 91.55051684 72.02564551 86.20140855 71.97553444 80.85219574 C71.95894666 78.81907367 71.94738233 76.78590374 71.9411068 74.75272369 C71.88252395 57.50563842 69.98431752 43.68693165 60.2512207 28.94824219 C40.48658784 10.06203745 13.05528183 11.62197365 -12.29743958 12.02827454 C-34.30515298 12.53407437 -58.50745753 16.52388511 -77.5612793 28.26074219 C-78.66149414 28.93363281 -78.66149414 28.93363281 -79.78393555 29.62011719 C-84.71147544 32.94687733 -87.94043769 36.44996991 -89.5612793 42.26074219 C-90.08864412 50.30305581 -85.51711356 55.28104633 -80.5612793 61.26074219 C-79.21524945 62.72658908 -77.86139571 64.18530088 -76.4987793 65.63574219 C-66.99108888 76.36719473 -64.25492725 85.29080314 -65.0144043 99.40527344 C-65.75502823 107.56614007 -68.56249701 112.64935644 -74.4987793 118.19824219 C-83.42526746 125.31598603 -92.45432148 125.94128411 -103.5612793 125.26074219 C-113.52102049 123.83418267 -120.58088813 119.21996278 -126.8737793 111.44824219 C-134.57302665 100.43404112 -135.86899855 87.84863582 -133.8737793 74.82324219 C-129.67869572 54.22919552 -115.72940532 37.28105051 -98.55224609 25.80566406 C-79.78647332 13.63217237 -58.66936582 5.6766886 -36.5612793 2.26074219 C-35.47322998 2.08414062 -34.38518066 1.90753906 -33.26416016 1.72558594 C-22.17319208 0.11495034 -11.19500677 -0.04558299 0 0 Z " fill="#FCFCFC" transform="translate(2279.561279296875,1208.7392578125)"/>
<path d="M0 0 C10.44488439 10.07952835 16.06641079 22.30867013 20 36 C20.3279166 37.06327798 20.65583321 38.12655596 20.99368668 39.22205448 C22.03215121 43.12070346 22.66081021 46.95589289 23.10882568 50.9549408 C23.19308044 51.69498665 23.2773352 52.4350325 23.36414313 53.19750398 C24.16170284 60.70214114 24.2825976 68.17845244 24.25878906 75.72094727 C24.26150999 77.20486623 24.26507701 78.68878384 24.26940918 80.17269897 C24.2784039 84.14581507 24.27504348 88.11882546 24.26865101 92.09194303 C24.26352403 96.28443732 24.26830071 100.47692362 24.27142334 104.66941833 C24.27504333 111.70370072 24.27031551 118.73794085 24.26074219 125.7722168 C24.24985721 133.86284187 24.25339152 141.95336612 24.264395 150.04398876 C24.27351926 157.03731373 24.27472833 164.03060864 24.26951766 171.02393764 C24.26642657 175.18029265 24.26590873 179.33660052 24.27259064 183.49295235 C24.27843909 187.40262998 24.27423275 191.31217967 24.26280212 195.22184372 C24.26019526 196.64224855 24.2608509 198.06266448 24.26532745 199.48306465 C24.33437567 223.65102134 20.39751892 247.63590712 5 267 C4.54238281 267.62003906 4.08476563 268.24007813 3.61328125 268.87890625 C-8.98420219 285.01379192 -31.6244234 292.5649524 -51.13232422 295.29882812 C-83.30075879 299.00569851 -119.40940462 297.58347471 -145.7421875 276.83984375 C-163.48088017 261.55437453 -172.27727382 240.97596619 -174.17328286 217.89010262 C-174.42491714 212.97669301 -174.39903218 208.06406176 -174.37231445 203.14575195 C-174.37475119 201.5403622 -174.37847898 199.93497398 -174.38337708 198.32958984 C-174.39266689 194.02599129 -174.38346378 189.72262493 -174.37004495 185.41904473 C-174.35860269 180.88395232 -174.36284756 176.34886922 -174.36479187 171.81376648 C-174.36567058 164.20612869 -174.35468126 156.59858073 -174.33618164 148.9909668 C-174.3149977 140.2300155 -174.31151161 131.46919537 -174.3177436 122.70822364 C-174.32346205 114.23091759 -174.31776394 105.75365712 -174.30657005 97.27635765 C-174.30195914 93.69020928 -174.30103481 90.10408911 -174.3031559 86.51793861 C-174.30505656 82.28815812 -174.2968002 78.05850882 -174.2810955 73.82875824 C-174.27689813 72.28818747 -174.27597091 70.74760326 -174.27878571 69.20702934 C-174.31558502 45.44000828 -170.21832956 20.60264502 -153.05712891 2.95361328 C-151.71729587 1.62299188 -150.3591797 0.31085331 -149 -1 C-148.36707031 -1.66386719 -147.73414063 -2.32773438 -147.08203125 -3.01171875 C-112.90419924 -36.58596874 -33.41087716 -30.13867785 0 0 Z " fill="#000000" transform="translate(1372,1244)"/>
<path d="M0 0 C1.02528809 0.24943359 1.02528809 0.24943359 2.07128906 0.50390625 C31.66029768 7.95983936 59.37482763 22.51774149 81.48828125 43.60546875 C83.54128787 45.56268968 85.62030615 47.39212711 87.8125 49.1875 C91.63798019 52.44556447 94.80220645 56.13374113 98 60 C98.66008057 60.78358887 98.66008057 60.78358887 99.33349609 61.58300781 C117.25861688 82.92043831 130.17802051 107.6492168 136 135 C136.15243164 135.6923877 136.30486328 136.38477539 136.46191406 137.09814453 C140.94991186 158.18591819 140.74535061 180.97699325 136 202 C135.77521973 202.99942627 135.77521973 202.99942627 135.54589844 204.01904297 C134.52683465 208.39928635 133.3108282 212.69914397 132 217 C131.68804688 218.06605469 131.37609375 219.13210938 131.0546875 220.23046875 C125.49680447 237.45990613 116.15350752 253.80122995 105 268 C104.34386719 268.8765625 103.68773437 269.753125 103.01171875 270.65625 C87.48691676 290.67269373 68.00203336 306.71217737 45.92236328 318.92724609 C44.18111671 319.89892979 42.46209937 320.91018609 40.74609375 321.92578125 C31.3345723 327.34672145 21.29979736 330.69842697 11 334 C10.32727051 334.21817383 9.65454102 334.43634766 8.96142578 334.66113281 C-4.55914599 338.98969941 -17.96917953 340.39455592 -32.125 340.375 C-33.13513657 340.37418427 -33.13513657 340.37418427 -34.16567993 340.37335205 C-45.86960975 340.3301724 -56.72502423 339.12165199 -68 336 C-68.84095215 335.77505859 -69.6819043 335.55011719 -70.54833984 335.31835938 C-111.33481229 324.27978379 -147.00803871 299.00330566 -172 265 C-172.40927734 264.45633789 -172.81855469 263.91267578 -173.24023438 263.35253906 C-198.16447614 229.93960626 -208.06628801 187.35709802 -203.3125 146.1875 C-195.90210585 100.29416246 -169.17887161 58.69985955 -131.78417969 31.28808594 C-111.05350634 16.32160639 -87.39343644 3.66961369 -62 -1 C-60.57300781 -1.28037109 -60.57300781 -1.28037109 -59.1171875 -1.56640625 C-39.92822811 -4.7497255 -18.93449288 -4.65797694 0 0 Z M-110 35 C-110.66386719 35.63292969 -111.32773438 36.26585937 -112.01171875 36.91796875 C-128.77557801 53.98320076 -131.31587373 80.90827551 -131.2746582 103.46606445 C-131.27901772 105.06614415 -131.28420493 106.66622178 -131.29014587 108.26629639 C-131.30341442 112.57021452 -131.30412821 116.87404419 -131.30158257 121.17797875 C-131.30050448 124.79075313 -131.3054175 128.40351021 -131.310188 132.01628083 C-131.32124135 140.55017398 -131.32174429 149.0840231 -131.31567383 157.61791992 C-131.30963826 166.37707064 -131.32194412 175.13606056 -131.3432439 183.89518386 C-131.36094475 191.45661376 -131.36684794 199.01799286 -131.36360615 206.57944268 C-131.36180651 211.07739819 -131.36429584 215.57523898 -131.37832069 220.07317543 C-131.39103349 224.30788018 -131.38883006 228.54233698 -131.37590981 232.77703857 C-131.37357336 234.31635312 -131.37617103 235.85568587 -131.38453293 237.39497948 C-131.46281133 252.9462844 -129.55769477 267.71999253 -123 282 C-122.50757813 283.07894531 -122.01515625 284.15789062 -121.5078125 285.26953125 C-112.20655834 304.0278022 -95.95333779 315.83884933 -76.625 323.1875 C-61.99978377 327.68033635 -46.75264154 328.27962668 -31.5625 328.3125 C-30.24862305 328.31797852 -28.93474609 328.32345703 -27.58105469 328.32910156 C-14.70878342 328.23537928 -2.32129013 326.85490656 10 323 C10.96421875 322.72414063 11.9284375 322.44828125 12.921875 322.1640625 C30.09300696 316.95934116 44.44548712 306.19782166 54 291 C56.2452176 286.75521223 58.18700466 282.44476277 60 278 C60.31710937 277.2471875 60.63421875 276.494375 60.9609375 275.71875 C66.77954222 261.20104316 67.30743214 244.8427896 67.25878906 229.40844727 C67.26150924 227.92629832 67.26507585 226.44415073 67.26940918 224.96200562 C67.27841438 220.98876322 67.27503855 217.01562638 67.26865101 213.04238248 C67.26352773 208.85035023 67.26829989 204.65832601 67.27142334 200.46629333 C67.27504518 193.43023077 67.27031142 186.39421042 67.26074219 179.3581543 C67.24986535 171.26813799 67.25338486 163.17822259 67.264395 155.08820873 C67.2735241 148.09573755 67.27472576 141.10329642 67.26951766 134.11082119 C67.2664281 129.95497834 67.26590418 125.79918263 67.27259064 121.64334297 C67.27844591 117.732034 67.27422083 113.82085277 67.26280212 109.90955734 C67.26019842 108.48957339 67.26084517 107.06957834 67.26532745 105.64959908 C67.3457088 77.55506243 62.05890496 51.96943798 42.140625 31.046875 C29.28832276 18.85366519 10.41362001 11.82031544 -7 10 C-8.14021606 9.87298706 -8.14021606 9.87298706 -9.3034668 9.7434082 C-44.78794581 6.09207381 -83.90089156 7.93871245 -110 35 Z " fill="#FCFCFC" transform="translate(1329,1212)"/>
<path d="M0 0 C0.33 29.37 0.66 58.74 1 89 C2.98 83.06 2.98 83.06 5 77 C15.96799431 48.29768652 35.70649843 21.43115639 64 8 C73.25488036 3.89472233 82.30310513 2.65410512 92.375 2.6875 C93.82132813 2.66333008 93.82132813 2.66333008 95.296875 2.63867188 C110.6723088 2.62836662 125.63782928 8.71943807 136.7421875 19.40234375 C146.93301992 31.1270904 150.60231501 43.59185071 150.46484375 59.00390625 C149.86161941 66.71803681 146.07234021 73.73563853 140.8125 79.32421875 C132.49066331 86.21573976 123.14476041 88.56852652 112.42578125 87.8203125 C104.64111776 86.62267196 97.35863127 82.9770418 92.0625 77.0625 C86.44183316 68.71666136 85.23259114 59.8292369 87 50 C88.66634953 44.96879963 91.25023736 40.42685367 93.92211914 35.87182617 C95.07975713 33.86149538 96.16907399 31.82838034 97.23046875 29.765625 C97.55684326 29.13301758 97.88321777 28.50041016 98.21948242 27.84863281 C99.55079441 24.69545973 99.5672796 22.34064652 99 19 C96.25082003 15.39598864 94.76306748 14.13512653 90.25 13.3359375 C88.83343179 13.31475985 87.41599261 13.32940482 86 13.375 C84.87549438 13.39711548 84.87549438 13.39711548 83.72827148 13.41967773 C65.97793266 14.19208848 52.02725137 26.18979576 40.4375 38.6875 C21.14820149 61.64448204 10.92298215 92.41750427 5.75 121.5 C5.59901855 122.33926025 5.44803711 123.17852051 5.29248047 124.04321289 C1.64688739 146.03801715 1.66072441 168.03663757 1.59528303 190.25528932 C1.57945903 194.9357463 1.55273235 199.61614199 1.5272522 204.29655457 C1.48080055 213.12503243 1.44389582 221.95352227 1.41057932 230.78205842 C1.37211766 240.84768845 1.32277207 250.91325641 1.27259517 260.97883379 C1.16977639 281.65251536 1.08179207 302.32622382 1 323 C23.44 323 45.88 323 69 323 C69 327.29 69 331.58 69 336 C4.98 336 -59.04 336 -125 336 C-125 331.71 -125 327.42 -125 323 C-105.2 323 -85.4 323 -65 323 C-65 226.97 -65 130.94 -65 32 C-84.8 32 -104.6 32 -125 32 C-125 27.71 -125 23.42 -125 19 C-123.48355644 18.98786972 -123.48355644 18.98786972 -121.93647766 18.97549438 C-112.36021051 18.89765644 -102.78407889 18.8098257 -93.20798969 18.71247292 C-88.28606743 18.66274958 -83.36416418 18.61641951 -78.44213867 18.578125 C-73.6828242 18.54096688 -68.92367877 18.49452873 -64.16451073 18.44193649 C-62.35828842 18.42355329 -60.5520301 18.40838759 -58.74575233 18.39665604 C-39.24479068 18.26558975 -21.51673571 17.06672481 -6 4 C-5.278125 3.2575 -4.55625 2.515 -3.8125 1.75 C-2 0 -2 0 0 0 Z " fill="#FCFCFC" transform="translate(967,1206)"/>
<path d="M0 0 C2.41098254 0.01071223 4.82121775 0.00004683 7.23217773 -0.01269531 C41.24745543 -0.04622678 74.02768895 10.4456649 99.10522461 34.01074219 C111.70381971 47.06746802 117.64290478 62.65484869 117.32397461 80.56152344 C116.86790305 89.96609911 112.84848812 99.69174942 105.98022461 106.26074219 C96.30100831 113.5323551 86.95146128 115.35032283 74.98022461 114.26074219 C65.36229718 112.34998061 57.8592033 106.84290463 52.28100586 98.81542969 C46.78943485 89.27992244 46.29409611 77.58163686 48.74584961 66.93652344 C51.62202011 59.51316787 56.24114529 53.00783759 60.77319336 46.51074219 C64.51578268 40.99953101 66.22873372 36.96864114 64.98022461 30.26074219 C60.74730458 21.87822732 51.12917407 18.85888623 42.79272461 16.07324219 C30.48435226 12.57249649 18.11961782 11.90851458 5.40161133 11.94506836 C3.11352877 11.94823071 0.82674297 11.92463952 -1.46118164 11.89941406 C-25.85719838 11.79604595 -52.50760223 17.38712296 -71.01977539 34.26074219 C-71.83833008 34.98777344 -72.65688477 35.71480469 -73.50024414 36.46386719 C-87.77486742 49.8530751 -93.75903531 66.71399124 -98.01977539 85.26074219 C-98.18977617 85.8608461 -98.35977695 86.46095001 -98.53492928 87.07923889 C-100.69686863 96.80660947 -100.16564595 107.38150841 -100.14916992 117.29589844 C-100.15052979 118.63483731 -100.15231298 119.97377581 -100.15447998 121.31271362 C-100.15898472 124.90362872 -100.15729382 128.49451463 -100.15410089 132.08543015 C-100.15154089 135.87181416 -100.15392485 139.65819595 -100.15548706 143.44458008 C-100.15729824 149.79899537 -100.15493019 156.15339899 -100.15014648 162.5078125 C-100.14470591 169.81847476 -100.14646931 177.12910911 -100.15197289 184.4397707 C-100.15653413 190.75529625 -100.15713992 197.07081347 -100.15453422 203.38634014 C-100.15298793 207.14136397 -100.15273186 210.89637475 -100.15607071 214.65139771 C-100.15899351 218.18425912 -100.15689419 221.71708512 -100.15117645 225.24994278 C-100.149258 227.13886722 -100.15216489 229.02779472 -100.15530396 230.91671753 C-100.08637352 259.27691426 -95.40098682 287.78868457 -74.64868164 308.64355469 C-61.24057959 321.31954508 -45.88875005 326.41401641 -28.01977539 329.26074219 C-27.09455078 329.43420166 -26.16932617 329.60766113 -25.21606445 329.78637695 C-19.25384893 330.67123677 -13.22382323 330.45855476 -7.20727539 330.44824219 C-6.16041565 330.44683731 -6.16041565 330.44683731 -5.09240723 330.44540405 C28.73263096 330.3467647 59.78037712 322.31752657 84.98022461 298.63574219 C94.65227057 288.61269456 101.24354433 276.83268703 106.98022461 264.26074219 C107.45202148 263.24367188 107.92381836 262.22660156 108.40991211 261.17871094 C113.74144928 249.07512811 116.89619733 236.08380296 119.98022461 223.26074219 C123.94022461 223.26074219 127.90022461 223.26074219 131.98022461 223.26074219 C129.44207883 251.52645651 117.54668778 279.80455712 98.98022461 301.26074219 C98.31764648 302.06769531 97.65506836 302.87464844 96.97241211 303.70605469 C80.21541936 323.43107567 56.00622921 335.01860868 30.98022461 340.26074219 C29.7569043 340.54046875 28.53358398 340.82019531 27.27319336 341.10839844 C4.33864779 345.83252047 -22.47244825 345.52584716 -45.01977539 339.26074219 C-45.75019043 339.06287109 -46.48060547 338.865 -47.2331543 338.66113281 C-56.09076176 336.2102703 -64.65926228 333.08488252 -73.01977539 329.26074219 C-74.11676758 328.75929688 -75.21375977 328.25785156 -76.34399414 327.74121094 C-111.23209274 311.05899582 -138.36188616 282.31152956 -156.01977539 248.26074219 C-156.49688965 247.35340332 -156.49688965 247.35340332 -156.98364258 246.42773438 C-160.81722855 239.04497685 -163.7671766 231.52557947 -166.20727539 223.57324219 C-166.43310303 222.84524414 -166.65893066 222.11724609 -166.89160156 221.3671875 C-167.67408448 218.67902138 -168.35874033 215.98165047 -169.01977539 213.26074219 C-169.18600403 212.57751892 -169.35223267 211.89429565 -169.52349854 211.19036865 C-172.40823563 199.03120342 -173.66121721 187.39566549 -173.54125977 174.90625 C-173.51977312 172.26046214 -173.54123908 169.61738773 -173.56665039 166.97167969 C-173.63991647 122.14863365 -151.48818221 82.18751468 -120.68041992 50.88964844 C-116.72084358 47.00574763 -112.42429658 43.61864448 -108.01977539 40.26074219 C-107.0155957 39.4525 -106.01141602 38.64425781 -104.97680664 37.81152344 C-85.3722941 22.11283301 -62.54046541 11.01816367 -38.33227539 4.51074219 C-37.59710693 4.31198486 -36.86193848 4.11322754 -36.10449219 3.90844727 C-24.08057254 0.8254926 -12.35393921 -0.0651196 0 0 Z " fill="#FCFCFC" transform="translate(691.019775390625,1208.7392578125)"/>
<path d="M0 0 C2.16405827 0.01006992 4.32812117 0.01918854 6.4921875 0.02734375 C11.70324352 0.04899344 16.91406753 0.08329201 22.125 0.125 C22.26431282 13.88595839 22.37078038 27.64674769 22.43587303 41.40826893 C22.46712192 47.79904488 22.50947851 54.18933664 22.57763672 60.57983398 C22.64305674 66.75256261 22.67875446 72.92482691 22.69426346 79.0978756 C22.70530903 81.44732657 22.72687848 83.79675351 22.75938034 86.14600563 C23.07069165 109.59026369 23.07069165 109.59026369 16.125 118.125 C15.45855469 119.08535156 14.79210938 120.04570313 14.10546875 121.03515625 C12.12609814 123.41126345 10.14007994 125.77903054 8.125 128.125 C7.44695313 128.94871094 6.76890625 129.77242187 6.0703125 130.62109375 C-11.01617964 150.68051035 -37.77027486 163.56301241 -63.875 166.125 C-82.70150912 167.32558145 -101.08350062 166.06376537 -115.875 153.125 C-128.52982171 141.91878639 -132.22660541 123.16491336 -133.875 107.125 C-134.1222334 102.34300103 -134.20568189 97.58127141 -134.19067383 92.79370117 C-134.18750681 90.69201988 -134.21112078 88.59174419 -134.23632812 86.49023438 C-134.32402544 67.75989116 -129.90988824 50.53407817 -118.875 35.125 C-118.42640625 34.49078125 -117.9778125 33.8565625 -117.515625 33.203125 C-103.67633553 15.45627144 -79.40909755 7.95595679 -58.25 3.9375 C-57.44739746 3.78249023 -56.64479492 3.62748047 -55.81787109 3.46777344 C-37.33946055 0.2125094 -18.70734021 -0.15443754 0 0 Z " fill="#000000" transform="translate(2329.875,1369.875)"/>
<path d="M0 0 C1.22355698 0.00222061 2.44711395 0.00444122 3.70774841 0.00672913 C4.38089081 0.0065831 5.0540332 0.00643707 5.74757385 0.00628662 C7.98229649 0.00698573 10.21693674 0.01477799 12.4516449 0.02259827 C13.99721226 0.02446245 15.54278022 0.02588635 17.08834839 0.02688599 C21.16380941 0.03071112 25.23923502 0.04054135 29.31468201 0.05158997 C33.47035747 0.0618042 37.62603864 0.06638363 41.78172302 0.07142639 C49.94124452 0.08216363 58.10073718 0.09923998 66.26023865 0.12025452 C76.04441315 23.05896896 85.75142973 46.02700682 95.32049561 69.05625916 C98.9011741 77.66936473 102.50606506 86.2723196 106.11042786 94.87553406 C109.12240131 102.06543454 112.13185249 109.25639157 115.14146423 116.44728088 C115.89114237 118.23841042 116.64089902 120.0295071 117.39073181 121.8205719 C119.55652316 126.99405532 121.72056052 132.16826509 123.88182068 137.34364319 C124.54720423 138.93619258 125.21321316 140.52848083 125.87986755 142.12049866 C126.79216701 144.29941783 127.70227569 146.47923877 128.61180115 148.65931702 C128.88271576 149.30498627 129.15363037 149.95065552 129.43275452 150.6158905 C131.26023865 155.00607965 131.26023865 155.00607965 131.26023865 156.12025452 C109.48023865 156.12025452 87.70023865 156.12025452 65.26023865 156.12025452 C58.78680659 139.93667438 58.78680659 139.93667438 56.3500824 132.44056702 C51.52849702 117.75114921 46.16609528 103.23454794 40.94773865 88.68275452 C40.63346924 87.80565826 40.31919983 86.92856201 39.9954071 86.02488708 C39.08864016 83.49510014 38.18052744 80.96580061 37.2719574 78.43666077 C36.99823807 77.6728006 36.72451874 76.90894043 36.44250488 76.12193298 C35.11296166 72.42618045 33.75037163 68.75528267 32.26023865 65.12025452 C32.06502625 65.6373851 31.86981384 66.15451569 31.66868591 66.68731689 C29.59167125 72.18927543 27.51420659 77.69106392 25.43650818 83.19276428 C24.66654161 85.23178533 23.89668071 87.27084627 23.12693787 89.30995178 C22.005 92.28198718 20.88270274 95.25388657 19.76023865 98.22572327 C19.38816284 99.21110077 19.01608704 100.19647827 18.63273621 101.2117157 C16.7613628 106.16369739 14.88316281 111.1129262 12.99168396 116.05726624 C12.62929626 117.00507462 12.26690857 117.952883 11.89353943 118.92941284 C11.21190064 120.71058255 10.52904373 122.4912868 9.8447113 124.27142334 C7.7777089 129.67240877 5.90100047 135.09899551 4.1313324 140.60462952 C2.99051523 143.89918671 1.58825558 147.03582049 0.0922699 150.18275452 C-0.92568236 152.41073885 -0.92568236 152.41073885 -1.73976135 156.12025452 C-23.18976135 156.12025452 -44.63976135 156.12025452 -66.73976135 156.12025452 C-63.36480736 145.99539253 -63.36480736 145.99539253 -62.00074768 142.67835999 C-61.53702507 141.54447342 -61.53702507 141.54447342 -61.06393433 140.38768005 C-60.73652756 139.5956015 -60.40912079 138.80352295 -60.0717926 137.98744202 C-59.54448799 136.70155685 -59.54448799 136.70155685 -59.00653076 135.38969421 C-57.85786736 132.59040513 -56.70507354 129.79283727 -55.55226135 126.99525452 C-54.74013065 125.01815668 -53.92828601 123.04094132 -53.11671448 121.06361389 C-51.45828333 117.02423272 -49.79824691 112.98551748 -48.13673401 108.94740295 C-44.98658299 101.29094541 -41.84539207 93.63081896 -38.70396423 85.97077942 C-37.73626678 83.61173548 -36.76800377 81.25292443 -35.79957581 78.8941803 C-32.19909359 70.12368717 -28.60611279 61.35017183 -25.02101135 52.57337952 C-24.62196594 51.59675354 -24.22292053 50.62012756 -23.81178284 49.61390686 C-21.88293106 44.89320337 -19.95496685 40.17214201 -18.02882385 35.45033264 C-14.47607023 26.74834505 -10.89934233 18.05665917 -7.27101135 9.38587952 C-6.930578 8.56794922 -6.59014465 7.75001892 -6.23939514 6.90730286 C-3.39950586 0.14921224 -3.39950586 0.14921224 0 0 Z " fill="#FDFDFD" transform="translate(945.7397613525391,1636.8797454833984)"/>
<path d="M0 0 C1.22355698 0.00222061 2.44711395 0.00444122 3.70774841 0.00672913 C4.38089081 0.0065831 5.0540332 0.00643707 5.74757385 0.00628662 C7.98229649 0.00698573 10.21693674 0.01477799 12.4516449 0.02259827 C13.99721226 0.02446245 15.54278022 0.02588635 17.08834839 0.02688599 C21.16380941 0.03071112 25.23923502 0.04054135 29.31468201 0.05158997 C33.47035747 0.0618042 37.62603864 0.06638363 41.78172302 0.07142639 C49.94124452 0.08216363 58.10073718 0.09923998 66.26023865 0.12025452 C66.65477234 1.07947815 67.04930603 2.03870178 67.45579529 3.0269928 C69.40738621 7.76809036 71.36419212 12.50702652 73.32273865 17.24525452 C73.8738884 18.57881485 73.8738884 18.57881485 74.43617249 19.9393158 C79.32478015 31.7557744 84.27590567 43.54402739 89.29930115 55.30384827 C90.06442268 57.0953833 90.06442268 57.0953833 90.84500122 58.92311096 C93.36241776 64.81377759 95.88543972 70.70198344 98.41477966 76.58753967 C102.59203354 86.33154261 106.70685583 96.05581051 110.32699585 106.021698 C111.92363252 110.36932035 113.82145691 114.43330384 115.96531677 118.53236389 C118.47488032 123.54770581 120.56995662 128.75375715 122.7094574 133.93519592 C123.51597578 135.88411808 124.33315653 137.82834834 125.15086365 139.77259827 C125.672347 141.02883905 126.19320308 142.28534044 126.71336365 143.54212952 C127.17903748 144.66200256 127.6447113 145.78187561 128.12449646 146.9356842 C129.26023865 150.12025452 129.26023865 150.12025452 130.26023865 156.12025452 C108.81023865 156.12025452 87.36023865 156.12025452 65.26023865 156.12025452 C54.26023865 126.12025452 54.26023865 126.12025452 49.26023865 112.12025452 C48.14040172 109.07646869 47.01647775 106.03474892 45.88523865 102.99525452 C43.35777045 96.15808395 40.87547245 89.30599561 38.44773865 82.43275452 C38.15786072 81.61983948 37.86798279 80.80692444 37.56932068 79.96937561 C35.84796408 75.0649801 34.44603069 70.18156201 33.26023865 65.12025452 C32.60023865 65.12025452 31.94023865 65.12025452 31.26023865 65.12025452 C31.15928894 65.76736389 31.05833923 66.41447327 30.95433044 67.08119202 C30.03372396 71.11204306 28.60776907 74.87931929 27.1547699 78.74525452 C26.84376846 79.58064758 26.53276703 80.41604065 26.21234131 81.27674866 C23.16491746 89.43545154 20.03580714 97.56263317 16.89091492 105.68415833 C11.52208728 119.55111085 6.22548735 133.43890622 1.14183044 147.41322327 C0.77098328 148.42771545 0.40013611 149.44220764 0.01805115 150.48744202 C-0.30018616 151.36513245 -0.61842346 152.24282288 -0.94630432 153.14710999 C-1.73976135 155.12025452 -1.73976135 155.12025452 -2.73976135 156.12025452 C-4.73407865 156.21430593 -6.73175678 156.23768701 -8.72828674 156.23377991 C-10.00953934 156.23370438 -11.29079193 156.23362885 -12.61087036 156.23355103 C-14.01971983 156.22844361 -15.42856891 156.2232276 -16.8374176 156.21791077 C-18.2708837 156.21604654 -19.70435043 156.21462266 -21.13781738 156.21362305 C-24.91736092 156.20979824 -28.69686625 156.19996828 -32.47639465 156.18891907 C-36.33045434 156.17870415 -40.18452017 156.17412525 -44.03858948 156.16908264 C-51.60566422 156.15834597 -59.17270744 156.14127001 -66.73976135 156.12025452 C-66.15238807 152.79385825 -65.33990572 149.84385398 -64.02833557 146.73353577 C-63.49964119 145.46974342 -63.49964119 145.46974342 -62.96026611 144.18041992 C-62.38318657 142.82032555 -62.38318657 142.82032555 -61.79444885 141.43275452 C-61.3923671 140.47418045 -60.99028534 139.51560638 -60.57601929 138.52798462 C-59.71019597 136.46467928 -58.84237388 134.40221178 -57.97276306 132.34049988 C-55.68072624 126.90536612 -53.40389608 121.46387101 -51.1264801 116.02259827 C-50.66834427 114.9288237 -50.21020844 113.83504913 -49.7381897 112.70812988 C-44.66998219 100.59224312 -39.74051488 88.42155482 -34.82984924 76.24119568 C-34.55648743 75.56319916 -34.28312561 74.88520264 -34.0014801 74.18666077 C-33.59965515 73.18984787 -33.59965515 73.18984787 -33.18971252 72.17289734 C-28.89808919 61.54094848 -24.51111875 50.94785726 -20.09327698 40.36781311 C-18.72380491 37.08196942 -17.3603864 33.7936686 -15.9981842 30.50480652 C-14.66994981 27.29890792 -13.33947553 24.09394113 -12.00880432 20.88905334 C-11.32141997 19.23218369 -10.63491622 17.57494846 -9.94923401 15.91737366 C-8.94942202 13.50096457 -7.9464788 11.08587673 -6.94288635 8.67103577 C-6.48199615 7.55406059 -6.48199615 7.55406059 -6.01179504 6.41452026 C-3.40169486 0.14930832 -3.40169486 0.14930832 0 0 Z " fill="#FDFDFD" transform="translate(1264.739761352539,1636.8797454833984)"/>
<path d="M0 0 C52.8 0 105.6 0 160 0 C160 15.51 160 31.02 160 47 C144.82 47 129.64 47 114 47 C114.00523682 50.29669678 114.01047363 53.59339355 114.01586914 56.98999023 C114.03240255 67.85455474 114.04347022 78.71911978 114.05181217 89.5836935 C114.05704172 96.17404785 114.06414067 102.76438937 114.07543945 109.35473633 C114.08626578 115.70892018 114.09227629 122.06309165 114.09487724 128.41728401 C114.09673195 130.84749611 114.10035343 133.27770749 114.10573006 135.70791435 C114.11293711 139.09882981 114.11399108 142.48969341 114.11352539 145.88061523 C114.11712067 146.89625046 114.12071594 147.91188568 114.12442017 148.95829773 C114.1230455 149.87681519 114.12167084 150.79533264 114.12025452 151.74168396 C114.12117631 152.54456565 114.1220981 153.34744734 114.12304783 154.17465878 C114 156 114 156 113 157 C110.91380978 157.09417773 108.82439523 157.11742878 106.73608398 157.11352539 C106.07184701 157.11364593 105.40761003 157.11376646 104.72324467 157.11389065 C102.56416079 157.11314176 100.40516227 157.10551468 98.24609375 157.09765625 C96.93000122 157.09664917 95.61390869 157.09564209 94.25793457 157.09460449 C89.31778091 157.08935248 84.37763963 157.07539139 79.4375 157.0625 C68.403125 157.041875 57.36875 157.02125 46 157 C46 120.7 46 84.4 46 47 C30.82 47 15.64 47 0 47 C0 31.49 0 15.98 0 0 Z " fill="#FAFAFA" transform="translate(743,1637)"/>
<path d="M0 0 C52.8 0 105.6 0 160 0 C160 15.18 160 30.36 160 46 C144.49 46 128.98 46 113 46 C113 82.63 113 119.26 113 157 C90.89 157 68.78 157 46 157 C46 120.7 46 84.4 46 47 C30.82 47 15.64 47 0 47 C0 31.49 0 15.98 0 0 Z " fill="#FCFCFC" transform="translate(1062,1637)"/>
<path d="M0 0 C1.96795327 1.4160128 3.70303336 2.90686286 5.45703125 4.578125 C6.33875 5.32835937 6.33875 5.32835937 7.23828125 6.09375 C14.86726673 12.9866053 20.00949217 22.65007917 22.45703125 32.578125 C22.76253906 33.7846875 22.76253906 33.7846875 23.07421875 35.015625 C26.85799644 52.4313689 24.98813674 72.96746045 15.41308594 88.24365234 C6.71576811 101.24536792 -3.66582935 107.51846459 -18.48828125 112.19140625 C-29.21602564 114.21050643 -40.62531762 112.86527772 -49.95703125 107.08203125 C-53.04604035 104.82986279 -55.99367445 102.4373639 -58.54296875 99.578125 C-58.54296875 98.918125 -58.54296875 98.258125 -58.54296875 97.578125 C-59.20296875 97.578125 -59.86296875 97.578125 -60.54296875 97.578125 C-60.54296875 116.718125 -60.54296875 135.858125 -60.54296875 155.578125 C-69.78296875 155.578125 -79.02296875 155.578125 -88.54296875 155.578125 C-88.87296875 103.108125 -89.20296875 50.638125 -89.54296875 -3.421875 C-81.29296875 -3.421875 -73.04296875 -3.421875 -64.54296875 -3.421875 C-63.88296875 1.858125 -63.22296875 7.138125 -62.54296875 12.578125 C-61.40859375 11.216875 -60.27421875 9.855625 -59.10546875 8.453125 C-43.78996276 -8.6027794 -19.75188397 -11.04406416 0 0 Z " fill="#FCFCFC" transform="translate(2101.54296875,1682.421875)"/>
<path d="M0 0 C12.21 0 24.42 0 37 0 C37.99 2.97 38.98 5.94 40 9 C40.92203192 11.69409009 41.84717908 14.38685842 42.77734375 17.078125 C43.29632606 18.58460024 43.81520293 20.09111182 44.33398438 21.59765625 C45.13366683 23.91881089 45.93395586 26.23974788 46.73608398 28.56005859 C49.9959122 37.99339344 53.10929615 47.44564531 56 57 C57.17248591 60.75482019 58.36505142 64.5030734 59.5625 68.25 C59.89475586 69.29067627 60.22701172 70.33135254 60.56933594 71.40356445 C62.61292289 77.77144451 64.69951967 84.12367207 66.82421875 90.46484375 C67.06632584 91.18787689 67.30843292 91.91091003 67.55787659 92.65585327 C68.74788865 96.20683799 69.94218838 99.7563038 71.14282227 103.30371094 C73.62394078 110.66524492 75.90103591 118.05526718 77.99511719 125.5378418 C79.73215495 131.52251926 81.74743922 137.41244714 83.75 143.3125 C84.55857113 145.70399487 85.36593515 148.09589834 86.171875 150.48828125 C86.6992627 152.04349487 86.6992627 152.04349487 87.23730469 153.63012695 C88 156 88 156 88 157 C77.77 157 67.54 157 57 157 C56.01 154.03 55.02 151.06 54 148 C53.19384121 145.76853226 52.38173264 143.53920118 51.5625 141.3125 C49.408245 135.32341156 47.57917986 129.29267219 45.89453125 123.15625 C45.02170648 120.07658881 44.012232 117.03669599 43 114 C18.25 113.505 18.25 113.505 -7 113 C-7.33 114.65 -7.66 116.3 -8 118 C-8.40024918 119.40257981 -8.82351139 120.79879707 -9.26953125 122.1875 C-9.51670898 122.96254883 -9.76388672 123.73759766 -10.01855469 124.53613281 C-10.41155762 125.75574707 -10.41155762 125.75574707 -10.8125 127 C-11.35582045 128.70301284 -11.89878793 130.40613832 -12.44140625 132.109375 C-12.70711426 132.94146484 -12.97282227 133.77355469 -13.24658203 134.63085938 C-15.60797875 142.05632723 -17.85932085 149.50762299 -20 157 C-29.9 157 -39.8 157 -50 157 C-46.88803542 146.24149388 -43.60715602 135.60285254 -40 125 C-36.77602968 115.5069619 -33.67367939 106.03028065 -30.9765625 96.37109375 C-29.63492905 91.73977509 -28.08748068 87.18809671 -26.54296875 82.62109375 C-20.44958166 64.49770208 -14.78593416 46.22356901 -9 28 C-7.72971827 23.99982452 -6.4587641 19.99986337 -5.1875 16 C-4.8972998 15.08557129 -4.60709961 14.17114258 -4.30810547 13.22900391 C-4.03498535 12.36968262 -3.76186523 11.51036133 -3.48046875 10.625 C-3.24223389 9.87476563 -3.00399902 9.12453125 -2.75854492 8.3515625 C-1.85850477 5.56135112 -0.9271112 2.78133361 0 0 Z " fill="#FCFCFB" transform="translate(598,1635)"/>
<path d="M0 0 C82.5 0 165 0 250 0 C250 11.88 250 23.76 250 36 C167.5 36 85 36 0 36 C0 24.12 0 12.24 0 0 Z " fill="#2CB99A" transform="translate(2164,1118)"/>
<path d="M0 0 C30.03 0 60.06 0 91 0 C91 7.92 91 15.84 91 24 C70.54 24 50.08 24 29 24 C29 37.2 29 50.4 29 64 C48.47 64 67.94 64 88 64 C88 71.92 88 79.84 88 88 C68.53 88 49.06 88 29 88 C29 103.18 29 118.36 29 134 C50.45 134 71.9 134 94 134 C94 141.59 94 149.18 94 157 C62.98 157 31.96 157 0 157 C0 105.19 0 53.38 0 0 Z " fill="#FBFBFB" transform="translate(1479,1635)"/>
<path d="M0 0 C9.24956285 8.32460657 14.34331381 20.52032967 16.03125 32.546875 C16.03125 40.466875 16.03125 48.386875 16.03125 56.546875 C-9.04875 56.546875 -34.12875 56.546875 -59.96875 56.546875 C-57.84071542 67.18704791 -56.15923057 74.14290338 -47.08984375 80.33203125 C-34.8690177 87.33143622 -19.08263496 87.3173108 -5.65625 84.109375 C-4.71136719 83.84253906 -3.76648437 83.57570313 -2.79296875 83.30078125 C0.46071441 82.43223236 3.69368026 81.97391809 7.03125 81.546875 C7.53905894 83.75342575 8.03716365 85.96221105 8.53125 88.171875 C8.8096875 89.40164063 9.088125 90.63140625 9.375 91.8984375 C9.97216621 95.21839728 10.15534534 98.18595951 10.03125 101.546875 C-10.16746303 109.5757484 -34.32973117 112.50587388 -54.96875 104.546875 C-69.00604497 98.45623867 -78.07636364 88.62693306 -84.28125 74.734375 C-90.0686479 59.06120729 -89.86045227 39.66822539 -83.234375 24.31640625 C-79.78488187 16.88508023 -75.98116414 10.21267547 -69.96875 4.546875 C-69.37707031 3.94746094 -68.78539063 3.34804687 -68.17578125 2.73046875 C-49.43184603 -15.16322611 -20.28599661 -14.9729975 0 0 Z " fill="#FCFBFB" transform="translate(2468.96875,1686.453125)"/>
<path d="M0 0 C0.82757812 0.32871094 1.65515625 0.65742187 2.5078125 0.99609375 C12.84017489 5.56192361 20.2631476 13.8330973 25 24 C28.47283584 33.43898972 30.17372575 42.17435829 30.125 52.1875 C30.12886719 52.99380859 30.13273437 53.80011719 30.13671875 54.63085938 C30.13542969 55.40623047 30.13414063 56.18160156 30.1328125 56.98046875 C30.13168457 57.68067139 30.13055664 58.38087402 30.12939453 59.10229492 C30 61 30 61 29 64 C3.92 64 -21.16 64 -47 64 C-44.79305326 73.93126035 -42.9159533 81.95980082 -34.19140625 87.8203125 C-30.60882602 89.74890293 -26.91034323 90.92793351 -23 92 C-22.01 92.33 -21.02 92.66 -20 93 C-8.30903047 93.96390255 2.67856159 92.89792787 14 90 C15.99666517 89.64724045 17.99595532 89.30808448 20 89 C20.50449402 91.58252893 21.00374301 94.16588703 21.5 96.75 C21.64308594 97.47960938 21.78617188 98.20921875 21.93359375 98.9609375 C22.58888879 102.39343532 23 105.49169491 23 109 C3.58599006 117.26038868 -21.12311835 120.00813998 -41 112 C-55.87380626 105.77133323 -64.78225349 96.25108251 -70.9921875 81.3125 C-76.67438986 62.63611394 -75.83287764 43.32476378 -67.4609375 25.7734375 C-60.27738275 12.32555065 -49.49024604 3.05543431 -34.9375 -1.375 C-23.44763705 -4.15443041 -11.04952712 -4.72185674 0 0 Z " fill="#FCFCFC" transform="translate(1877,1679)"/>
<path d="M0 0 C8.54472721 6.39391403 13.67716786 16.0089428 15.84690857 26.42166138 C16.34336728 30.17688799 16.4137219 33.86094409 16.39477539 37.64013672 C16.39492142 38.41154495 16.39506744 39.18295319 16.3952179 39.97773743 C16.39452508 42.50992716 16.38676241 45.04204197 16.37890625 47.57421875 C16.37703983 49.33684245 16.37561698 51.09946666 16.37461853 52.86209106 C16.37081103 57.48821459 16.36099589 62.11430643 16.34991455 66.74041748 C16.33966238 71.46626354 16.33511277 76.19211476 16.33007812 80.91796875 C16.31937197 90.1810057 16.30178955 99.44401088 16.28125 108.70703125 C7.04125 108.70703125 -2.19875 108.70703125 -11.71875 108.70703125 C-11.73333252 106.64412842 -11.74791504 104.58122559 -11.76293945 102.45581055 C-11.8135149 95.60251535 -11.88014882 88.74944192 -11.95446491 81.89636517 C-11.99899191 77.74562753 -12.0382857 73.59498406 -12.06518555 69.4440918 C-12.09139648 65.43033684 -12.13192097 61.41694778 -12.18193626 57.4034214 C-12.19848576 55.8802531 -12.2100736 54.35702169 -12.21636391 52.83377647 C-12.17948146 36.09276605 -12.17948146 36.09276605 -19.71875 21.70703125 C-25.59759092 17.78084264 -30.67725744 15.70110374 -37.71875 16.70703125 C-44.83901399 18.69724393 -49.66785094 22.5467262 -53.71875 28.70703125 C-56.21936426 33.7727052 -57.10138494 37.46310329 -57.15112305 43.20288086 C-57.1613147 43.9159137 -57.17150635 44.62894653 -57.18200684 45.36358643 C-57.21194608 47.69559785 -57.22137304 50.02719728 -57.23046875 52.359375 C-57.24732967 53.98606206 -57.2654818 55.6127362 -57.28486633 57.23939514 C-57.33221932 61.50212568 -57.36212344 65.76480383 -57.38830566 70.02770996 C-57.41818571 74.38511497 -57.46469034 78.74233975 -57.50976562 83.09960938 C-57.59563147 91.63534274 -57.66151252 100.17105786 -57.71875 108.70703125 C-66.95875 108.70703125 -76.19875 108.70703125 -85.71875 108.70703125 C-86.21375 52.77203125 -86.21375 52.77203125 -86.71875 -4.29296875 C-78.46875 -4.29296875 -70.21875 -4.29296875 -61.71875 -4.29296875 C-61.05875 0.98703125 -60.39875 6.26703125 -59.71875 11.70703125 C-58.935 10.53140625 -58.15125 9.35578125 -57.34375 8.14453125 C-51.27977104 0.11616474 -43.42903829 -4.17139316 -33.71875 -6.29296875 C-32.47931641 -6.56753906 -32.47931641 -6.56753906 -31.21484375 -6.84765625 C-20.03737575 -8.84175852 -9.44528236 -6.14242254 0 0 Z " fill="#FDFDFD" transform="translate(1683.71875,1683.29296875)"/>
<path d="M0 0 C-1.09890483 6.91663627 -2.56569185 13.42736799 -5 20 C-5.78375 19.731875 -6.5675 19.46375 -7.375 19.1875 C-8.57125 18.795625 -9.7675 18.40375 -11 18 C-11.69222656 17.73574219 -12.38445313 17.47148438 -13.09765625 17.19921875 C-20.53578722 14.57910918 -28.18692924 14.08921918 -36 15 C-39.58451857 16.78732193 -42.10841081 18.41593627 -44 22 C-44.63495277 26.28593116 -44.37100122 28.36034273 -42.1875 32.125 C-37.77480841 36.81192666 -31.31620244 38.715162 -25.44921875 40.98828125 C-13.30752871 45.69391232 -3.90812155 50.76702191 2.9375 62.25 C6.50072333 71.47246039 6.00150039 81.41174385 2.25 90.46484375 C-2.48803604 100.0741731 -9.47844849 104.97204717 -19.375 108.8125 C-26.73537458 111.22365719 -33.58994615 111.32447075 -41.3125 111.375 C-41.98963043 111.37989441 -42.66676086 111.38478882 -43.3644104 111.38983154 C-54.96674201 111.42467286 -65.11698241 110.58867839 -75 104 C-74.42351925 96.64987044 -72.28953836 89.98575424 -70 83 C-68.80761719 83.42152344 -67.61523438 83.84304688 -66.38671875 84.27734375 C-64.8203174 84.83074303 -63.25391088 85.38412768 -61.6875 85.9375 C-60.90181641 86.21529297 -60.11613281 86.49308594 -59.30664062 86.77929688 C-58.54931641 87.04677734 -57.79199219 87.31425781 -57.01171875 87.58984375 C-56.31522217 87.83597412 -55.61872559 88.08210449 -54.90112305 88.33569336 C-47.50574251 90.91985034 -37.65229239 91.70097457 -30.13671875 88.953125 C-27.49677062 87.3122066 -25.41130497 85.82260994 -24 83 C-23.40319184 78.18290559 -23.13047105 74.30429343 -25.875 70.1875 C-32.01787002 65.88749099 -38.54223428 63.13249201 -45.5625 60.5625 C-55.57722085 56.78491434 -64.5822254 50.79689867 -70.4375 41.625 C-73.78061008 34.12125075 -73.26312673 24.25649875 -70.96484375 16.51171875 C-66.5553978 6.84532889 -59.24205919 0.34839089 -49.6484375 -4.03515625 C-33.49639392 -9.91945531 -14.89479967 -8.3067152 0 0 Z " fill="#FBFBFB" transform="translate(2360,1683)"/>
<path d="M0 0 C0 9.57 0 19.14 0 29 C9.24 29 18.48 29 28 29 C28 35.93 28 42.86 28 50 C18.76 50 9.52 50 0 50 C0.06773181 57.41780071 0.13828415 64.83465976 0.2355423 72.25198364 C0.28004679 75.70670319 0.31951314 79.16130584 0.34643555 82.61621094 C0.37762537 86.58814233 0.43240877 90.55958622 0.48828125 94.53125 C0.49467117 95.75863892 0.5010611 96.98602783 0.50764465 98.25061035 C0.63812088 105.90087854 0.94458779 112.4474549 6.13671875 118.484375 C10.11537338 120.59040228 13.39491462 120.44105814 17.8125 120.25 C21.8653125 120.12625 21.8653125 120.12625 26 120 C26 127.26 26 134.52 26 142 C14.4183746 145.8605418 1.91111768 147.22975008 -9.59765625 142.33203125 C-16.87168414 138.29878977 -22.19157574 132.59728989 -25.25683594 124.80493164 C-29.00704306 110.58243036 -28.46289905 96.14323767 -28.2746582 81.55541992 C-28.23312649 77.98821627 -28.21534195 74.42089333 -28.1953125 70.85351562 C-28.15290626 63.90202895 -28.08278557 56.9511222 -28 50 C-33.28 50 -38.56 50 -44 50 C-44 43.07 -44 36.14 -44 29 C-38.72 29 -33.44 29 -28 29 C-28 22.07 -28 15.14 -28 8 C-22.21667734 6.07222578 -16.43645328 4.15149717 -10.625 2.3125 C-9.92761719 2.08755859 -9.23023438 1.86261719 -8.51171875 1.63085938 C-5.56094051 0.69918371 -3.11442698 0 0 0 Z " fill="#FBFBFB" transform="translate(1762,1650)"/>
<path d="M0 0 C0.88042969 -0.00257812 1.76085938 -0.00515625 2.66796875 -0.0078125 C4.8125 0.125 4.8125 0.125 5.8125 1.125 C5.90008003 3.12464982 5.91946576 5.1273611 5.91015625 7.12890625 C5.90532227 8.95131836 5.90532227 8.95131836 5.90039062 10.81054688 C5.88782227 12.72963867 5.88782227 12.72963867 5.875 14.6875 C5.87048828 15.97076172 5.86597656 17.25402344 5.86132812 18.57617188 C5.84949545 21.75916022 5.83301068 24.94205762 5.8125 28.125 C2.36197917 28.05989583 -1.08854167 27.99479167 -4.5390625 27.9296875 C-10.76181837 28.26281148 -15.32399299 30.27472361 -20.1875 34.125 C-25.9542317 40.55078675 -28.40897424 46.31718991 -28.50634766 55.04833984 C-28.51639328 55.7124588 -28.5264389 56.37657776 -28.53678894 57.06082153 C-28.56745262 59.23585212 -28.58460855 61.41076059 -28.6015625 63.5859375 C-28.62028775 65.10194945 -28.63986216 66.61795112 -28.6602478 68.13394165 C-28.71143191 72.10896734 -28.75113069 76.08402677 -28.78839111 80.0592041 C-28.82851715 84.1215846 -28.87957013 88.18382641 -28.9296875 92.24609375 C-29.02628425 100.20564112 -29.10972975 108.1652464 -29.1875 116.125 C-38.7575 116.125 -48.3275 116.125 -58.1875 116.125 C-58.1875 78.835 -58.1875 41.545 -58.1875 3.125 C-50.2675 3.125 -42.3475 3.125 -34.1875 3.125 C-33.75 12.0625 -33.75 12.0625 -33.61938477 14.88256836 C-33.5622229 15.97516968 -33.5622229 15.97516968 -33.50390625 17.08984375 C-33.46724854 17.8387085 -33.43059082 18.58757324 -33.39282227 19.35913086 C-33.36978937 21.14961326 -33.36978937 21.14961326 -32.1875 22.125 C-31.85878906 21.4959375 -31.53007812 20.866875 -31.19140625 20.21875 C-25.9513233 10.78944085 -19.70219869 4.15465894 -9.1875 1.125 C-8.5584375 0.94066406 -7.929375 0.75632812 -7.28125 0.56640625 C-4.81195116 0.04582646 -2.52223603 -0.00745121 0 0 Z " fill="#FBFBFB" transform="translate(2207.1875,1675.875)"/>
<path d="M0 0 C0.88042969 -0.00257812 1.76085938 -0.00515625 2.66796875 -0.0078125 C4.8125 0.125 4.8125 0.125 5.8125 1.125 C5.90008003 3.12464982 5.91946576 5.1273611 5.91015625 7.12890625 C5.90532227 8.95131836 5.90532227 8.95131836 5.90039062 10.81054688 C5.88782227 12.72963867 5.88782227 12.72963867 5.875 14.6875 C5.87048828 15.97076172 5.86597656 17.25402344 5.86132812 18.57617188 C5.84949545 21.75916022 5.83301068 24.94205762 5.8125 28.125 C4.7503125 28.07859375 3.688125 28.0321875 2.59375 27.984375 C-6.42020955 27.70298854 -13.17003976 27.51546336 -20.109375 33.890625 C-28.58100424 42.78233503 -28.65012105 52.11749066 -28.69921875 63.78125 C-28.71608691 65.29440753 -28.73424 66.80755122 -28.75361633 68.32067871 C-28.80089093 72.2792529 -28.83084532 76.23777099 -28.85705566 80.1965332 C-28.88697575 84.24571811 -28.9334664 88.29471016 -28.97851562 92.34375 C-29.06429203 100.270754 -29.13021661 108.19773884 -29.1875 116.125 C-38.7575 116.125 -48.3275 116.125 -58.1875 116.125 C-58.6825 60.19 -58.6825 60.19 -59.1875 3.125 C-50.9375 3.125 -42.6875 3.125 -34.1875 3.125 C-33.8575 9.395 -33.5275 15.665 -33.1875 22.125 C-30.978255 19.18164397 -30.978255 19.18164397 -28.828125 16.1953125 C-21.55711878 6.02407346 -12.90680644 -0.03812941 0 0 Z " fill="#FAFAFA" transform="translate(1988.1875,1675.875)"/>
<path d="M0 0 C8.19313101 4.79499635 12.60744768 12.05209583 15.09375 21.09765625 C15.69708785 25.31521988 15.68436889 29.49482146 15.6875 33.75 C15.69974609 34.61431641 15.71199219 35.47863281 15.72460938 36.36914062 C15.74708109 46.29414782 13.48928124 55.98090913 6.96875 63.765625 C1.70538874 68.6814058 -5.31118948 72.04276864 -12.5625 72.375 C-21.8457905 71.34352328 -28.44221954 68.24901839 -34.5 60.9375 C-39.91677966 52.85652336 -39.96656735 44.18051002 -40.0625 34.75 C-40.07740479 33.64543457 -40.09230957 32.54086914 -40.10766602 31.40283203 C-39.97895879 21.23876906 -37.26635218 11.67626198 -29.8671875 4.3125 C-21.51054625 -3.21209472 -10.41198641 -4.80310147 0 0 Z " fill="#020202" transform="translate(2080.5,1701.0625)"/>
<path d="M0 0 C9.57 0 19.14 0 29 0 C29 37.29 29 74.58 29 113 C19.43 113 9.86 113 0 113 C0 75.71 0 38.42 0 0 Z " fill="#FAFAFA" transform="translate(2232,1679)"/>
<path d="M0 0 C2.02726779 3.04090169 2.71660023 5.18230977 3.62890625 8.6875 C3.93747559 9.84862305 4.24604492 11.00974609 4.56396484 12.20605469 C5.05823975 14.08405762 5.05823975 14.08405762 5.5625 16 C8.63861284 27.51626327 12.12114065 38.81161754 16.02954102 50.078125 C16.56792603 51.64046875 16.56792603 51.64046875 17.1171875 53.234375 C17.43284668 54.13381836 17.74850586 55.03326172 18.07373047 55.95996094 C19.27751804 59.91082095 20.10403783 63.96817025 21 68 C7.8 68 -5.4 68 -19 68 C-16.75230274 57.88536233 -16.75230274 57.88536233 -15.44921875 53.90625 C-15.1653833 53.03000977 -14.88154785 52.15376953 -14.58911133 51.25097656 C-14.29157959 50.3431543 -13.99404785 49.43533203 -13.6875 48.5 C-13.05866854 46.5472698 -12.43107585 44.59414026 -11.8046875 42.640625 C-11.49756836 41.68349609 -11.19044922 40.72636719 -10.87402344 39.74023438 C-7.49827104 29.15659055 -4.54289122 18.58558823 -2.25512695 7.70996094 C-1.08984754 2.17969508 -1.08984754 2.17969508 0 0 Z " fill="#060606" transform="translate(615,1658)"/>
<path d="M0 0 C7.34467352 3.6907291 10.84105106 9.39773885 13.796875 16.828125 C14.50306048 20.18681204 14.27734375 23.68115704 14.27734375 27.11328125 C-2.22265625 27.11328125 -18.72265625 27.11328125 -35.72265625 27.11328125 C-34.560617 16.65492797 -32.3266114 9.46135604 -23.89453125 2.6328125 C-16.73386353 -2.1011845 -8.12051623 -2.64470184 0 0 Z " fill="#090808" transform="translate(2444.72265625,1696.88671875)"/>
<path d="M0 0 C6.63615698 3.96169824 10.97802249 10.05631271 13.07421875 17.48828125 C13.46028556 20.65402909 13.38671875 23.86157963 13.38671875 27.05078125 C-3.11328125 27.05078125 -19.61328125 27.05078125 -36.61328125 27.05078125 C-35.36805093 17.08893869 -32.71774539 10.54841235 -25.5546875 3.5234375 C-18.27070663 -2.00183571 -8.64155656 -3.13886135 0 0 Z " fill="#080808" transform="translate(1866.61328125,1696.94921875)"/>
<path d="M0 0 C4.64990438 2.16461066 6.71605707 4.48387489 9 9 C9.82534539 14.52460923 9.7015139 19.46206568 7.375 24.5625 C2.92663794 29.12792422 -0.72723629 30.19683704 -7 30.4375 C-12.1419465 30.27840512 -15.23858362 29.76141638 -19 26 C-22.14746426 21.82263154 -23.33059966 18.11082874 -23.0625 12.875 C-22.30720584 7.86539589 -20.68718029 5.42993516 -17 2 C-11.91675302 -1.25417577 -5.79308462 -0.58363166 0 0 Z " fill="#FAFAFA" transform="translate(2253,1632)"/>
</svg>
