<?xml version="1.0" encoding="UTF-8"?>
<svg version="1.1" xmlns="http://www.w3.org/2000/svg" width="906" height="293">
<path d="M0 0 C298.98 0 597.96 0 906 0 C906 96.69 906 193.38 906 293 C607.02 293 308.04 293 0 293 C0 196.31 0 99.62 0 0 Z " fill="#EF3C51" transform="translate(0,0)"/>
<path d="M0 0 C12.25777839 -0.06805805 24.51542915 -0.12297809 36.77335453 -0.15543652 C42.46656943 -0.17102306 48.1596472 -0.19213182 53.8527832 -0.22631836 C59.35765855 -0.25916363 64.86240284 -0.27690559 70.3673687 -0.28463173 C72.45668027 -0.2901304 74.54598552 -0.30086651 76.63524055 -0.31719017 C94.13918002 -0.44838249 111.37417446 -0.53063908 125.15625 11.953125 C126.9506425 13.88437795 128.4934121 15.83873881 130 18 C130.43183594 18.59167969 130.86367188 19.18335937 131.30859375 19.79296875 C135.09692885 25.94082053 134.6972009 33.01177707 134 40 C131.10996804 50.50565671 125.11261919 56.39916093 116 62 C118.35044323 69.58078105 121.42770436 76.70706296 124.6875 83.9375 C125.69474911 86.17427892 126.69883005 88.41248814 127.69921875 90.65234375 C128.14096436 91.63195068 128.58270996 92.61155762 129.0378418 93.62084961 C130 96 130 96 130 98 C133.63 98 137.26 98 141 98 C141 106.25 141 114.5 141 123 C126.15 123 111.3 123 96 123 C89.8125 106.8125 89.8125 106.8125 87.89379883 101.79223633 C87.37323292 100.4304924 86.85264454 99.06875706 86.33203125 97.70703125 C85.91217705 96.60860649 85.91217705 96.60860649 85.48384094 95.48799133 C83.31799521 89.82437709 81.13900125 84.1659441 78.9519043 78.51049805 C78.26102776 76.6884197 77.61622073 74.84866219 77 73 C70.4 72.67 63.8 72.34 57 72 C57 80.58 57 89.16 57 98 C60.96 98 64.92 98 69 98 C69 106.25 69 114.5 69 123 C46.23 123 23.46 123 0 123 C0 114.75 0 106.5 0 98 C3.96 98 7.92 98 12 98 C12 73.91 12 49.82 12 25 C8.04 25 4.08 25 0 25 C0 16.75 0 8.5 0 0 Z " fill="#FEFDFD" transform="translate(139,85)"/>
<path d="M0 0 C21.45 0 42.9 0 65 0 C65 8.25 65 16.5 65 25 C61.37 25 57.74 25 54 25 C54.33 35.56 54.66 46.12 55 57 C59.37966228 52.91238752 59.37966228 52.91238752 63.7590332 48.82446289 C67.24796236 45.56750686 70.73806561 42.31182462 74.23046875 39.05859375 C74.90456787 38.43033691 75.57866699 37.80208008 76.27319336 37.15478516 C77.56917567 35.9469943 78.86554865 34.73962248 80.16235352 33.53271484 C80.75330811 32.98180176 81.3442627 32.43088867 81.953125 31.86328125 C82.47036133 31.38157471 82.98759766 30.89986816 83.52050781 30.40356445 C85.04071634 28.96137323 86.52482068 27.48810501 88 26 C85.69 25.67 83.38 25.34 81 25 C81 16.75 81 8.5 81 0 C99.48 0 117.96 0 137 0 C137 8.25 137 16.5 137 25 C133.7 25.33 130.4 25.66 127 26 C123.69653619 28.08887797 123.69653619 28.08887797 121.0625 31 C120.04815035 32.0104066 119.03116913 33.01817751 118.01171875 34.0234375 C117.51075684 34.52713867 117.00979492 35.03083984 116.49365234 35.54980469 C114.24529136 37.73275079 111.82266293 39.67101239 109.375 41.625 C104.07195987 45.89367713 99.01504327 50.39834424 94 55 C95.41835392 58.19995093 97.13051981 60.41438604 99.55664062 62.92651367 C100.64918152 64.06240181 100.64918152 64.06240181 101.76379395 65.22123718 C105.11479692 68.64826137 108.46688635 72.0738401 111.83691406 75.48217773 C113.60796826 77.28132071 115.36913904 79.09024813 117.12011719 80.90893555 C119.65205983 83.53846249 122.21256072 86.13688505 124.78125 88.73046875 C125.55456665 89.54396286 126.3278833 90.35745697 127.12463379 91.19560242 C127.87821167 91.94340469 128.63178955 92.69120697 129.40820312 93.46166992 C130.05503052 94.12245041 130.70185791 94.7832309 131.36828613 95.46403503 C134.9412832 97.79376726 134.9412832 97.79376726 144 98 C144 106.25 144 114.5 144 123 C122.88 123 101.76 123 80 123 C80 114.75 80 106.5 80 98 C84.455 97.505 84.455 97.505 89 97 C77.78 85.78 66.56 74.56 55 63 C54.67 74.55 54.34 86.1 54 98 C57.63 98 61.26 98 65 98 C65 106.25 65 114.5 65 123 C43.55 123 22.1 123 0 123 C0 114.75 0 106.5 0 98 C4.29 98 8.58 98 13 98 C13 73.91 13 49.82 13 25 C8.71 25 4.42 25 0 25 C0 16.75 0 8.5 0 0 Z " fill="#FEFDFD" transform="translate(626,85)"/>
<path d="M0 0 C42.90101182 -3.06435799 42.90101182 -3.06435799 50.6484375 3.59765625 C53.80239141 7.46466002 55.87314926 11.78253908 57.796875 16.36621094 C59.76705174 20.67917089 62.63191762 24.25065391 65.5 28 C66.5642531 29.46820557 67.62413053 30.93959251 68.6796875 32.4140625 C75.36618951 41.67198601 82.14796272 50.86395029 89 60 C89.33 48.45 89.66 36.9 90 25 C86.7 25 83.4 25 80 25 C80 16.75 80 8.5 80 0 C95.18 0 110.36 0 126 0 C126 8.25 126 16.5 126 25 C122.7 25 119.4 25 116 25 C116 57.34 116 89.68 116 123 C104.45 123 92.9 123 81 123 C72.35360992 113.93523621 72.35360992 113.93523621 70.6015625 109.60546875 C67.933038 103.61436962 64.41152198 98.52089928 60.625 93.1875 C59.37235859 91.35816283 58.12369092 89.52609863 56.87890625 87.69140625 C52.77434647 81.66865097 48.66845869 75.64680163 44.5625 69.625 C42.396875 66.44875 40.23125 63.2725 38 60 C37.67 72.54 37.34 85.08 37 98 C40.3 98 43.6 98 47 98 C47 106.25 47 114.5 47 123 C31.16 123 15.32 123 -1 123 C-1 114.75 -1 106.5 -1 98 C2.63 98 6.26 98 10 98 C10 73.58 10 49.16 10 24 C6.7 24 3.4 24 0 24 C0 16.08 0 8.16 0 0 Z " fill="#FEFDFC" transform="translate(464,85)"/>
<path d="M0 0 C32.01 0 64.02 0 97 0 C97 8.25 97 16.5 97 25 C92.05 25 87.1 25 82 25 C82.7425 27.206875 83.485 29.41375 84.25 31.6875 C86.24519163 37.65231867 88.14762683 43.63927094 89.98046875 49.65625 C91.07753624 53.2542951 92.19149416 56.84686253 93.3125 60.4375 C93.51456055 61.08702637 93.71662109 61.73655273 93.92480469 62.40576172 C95.20321335 66.50075566 96.51175865 70.58489522 97.83984375 74.6640625 C98.15590576 75.64060791 98.47196777 76.61715332 98.79760742 77.62329102 C99.41932422 79.54199097 100.04558701 81.45922552 100.67700195 83.37475586 C102.25775499 88.26608402 103.46661216 92.88368765 104 98 C107.63 98 111.26 98 115 98 C115 106.25 115 114.5 115 123 C93.88 123 72.76 123 51 123 C51 114.75 51 106.5 51 98 C54.96 98 58.92 98 63 98 C62.71125 97.08476562 62.4225 96.16953125 62.125 95.2265625 C61.75375 94.03804688 61.3825 92.84953125 61 91.625 C60.62875 90.44164062 60.2575 89.25828125 59.875 88.0390625 C59 85 59 85 59 83 C47.78 83.33 36.56 83.66 25 84 C23.68 88.62 22.36 93.24 21 98 C24.63 98 28.26 98 32 98 C32 106.25 32 114.5 32 123 C15.5 123 -1 123 -18 123 C-18 114.75 -18 106.5 -18 98 C-13.05 97.505 -13.05 97.505 -8 97 C-2.24890165 80.00189553 -2.24890165 80.00189553 3.11328125 62.87890625 C5.74761221 54.32603436 8.75424777 45.89106744 11.6875 37.4375 C12.10322266 36.23802734 12.51894531 35.03855469 12.94726562 33.80273438 C13.96437138 30.86832581 14.98212012 27.93414013 16 25 C10.72 25 5.44 25 0 25 C0 16.75 0 8.5 0 0 Z " fill="#FEFDFD" transform="translate(335,85)"/>
<path d="M0 0 C36.63 0 73.26 0 111 0 C111 12.54 111 25.08 111 38 C102.09 38 93.18 38 84 38 C84 33.71 84 29.42 84 25 C74.43 25 64.86 25 55 25 C55 32.92 55 40.84 55 49 C62.92 49 70.84 49 79 49 C79 56.59 79 64.18 79 72 C70.75 72 62.5 72 54 72 C54 80.58 54 89.16 54 98 C63.9 98 73.8 98 84 98 C84 92.72 84 87.44 84 82 C92.58 82 101.16 82 110 82 C110 95.53 110 109.06 110 123 C73.7 123 37.4 123 0 123 C0 114.75 0 106.5 0 98 C4.29 98 8.58 98 13 98 C13 73.91 13 49.82 13 25 C8.71 25 4.42 25 0 25 C0 16.75 0 8.5 0 0 Z " fill="#FEFCFC" transform="translate(783,85)"/>
<path d="M0 0 C36.96 0 73.92 0 112 0 C112 12.54 112 25.08 112 38 C103.75 38 95.5 38 87 38 C87 33.71 87 29.42 87 25 C77.1 25 67.2 25 57 25 C57 32.59 57 40.18 57 48 C64.59 48 72.18 48 80 48 C80 56.25 80 64.5 80 73 C72.41 73 64.82 73 57 73 C57 81.25 57 89.5 57 98 C61.95 98 66.9 98 72 98 C72 106.25 72 114.5 72 123 C48.24 123 24.48 123 0 123 C0 114.75 0 106.5 0 98 C3.96 98 7.92 98 12 98 C12 73.91 12 49.82 12 25 C8.04 25 4.08 25 0 25 C0 16.75 0 8.5 0 0 Z " fill="#FEFDFD" transform="translate(14,85)"/>
<path d="M0 0 C4.29 0 8.58 0 13 0 C13 96.69 13 193.38 13 293 C8.71 293 4.42 293 0 293 C0 196.31 0 99.62 0 0 Z " fill="#FFFFFF" transform="translate(600,0)"/>
<path d="M0 0 C4.29 0 8.58 0 13 0 C13 96.69 13 193.38 13 293 C8.71 293 4.42 293 0 293 C0 196.31 0 99.62 0 0 Z " fill="#FFFFFF" transform="translate(294,0)"/>
<path d="M0 0 C18.87634855 -0.55518672 18.87634855 -0.55518672 27.0625 5.125 C29.68400743 9.01497876 30.42015646 12.32884881 30 17 C27.42179497 22.35473353 24.14328615 24.42835693 19 27 C17.55151418 27.08342159 16.09929131 27.10732861 14.6484375 27.09765625 C13.88192871 27.09515869 13.11541992 27.09266113 12.32568359 27.09008789 C11.35195801 27.08098389 10.37823242 27.07187988 9.375 27.0625 C6.28125 27.041875 3.1875 27.02125 0 27 C0 18.09 0 9.18 0 0 Z " fill="#EF3F52" transform="translate(196,110)"/>
<path d="M0 0 C0.33 0 0.66 0 1 0 C1.32871094 1.09441406 1.32871094 1.09441406 1.6640625 2.2109375 C3.23212194 7.37406004 4.82294231 12.5184608 6.56640625 17.625 C6.96835205 18.80570068 6.96835205 18.80570068 7.37841797 20.01025391 C7.90729297 21.55602436 8.44126424 23.10006301 8.98095703 24.64208984 C9.2282959 25.36605957 9.47563477 26.0900293 9.73046875 26.8359375 C9.95114014 27.47063965 10.17181152 28.1053418 10.39916992 28.75927734 C11.20881013 31.77873198 11.55789993 34.90529951 12 38 C4.41 38 -3.18 38 -11 38 C-10.27165631 32.90159415 -9.43187607 28.64873122 -7.96875 23.7890625 C-7.77277222 23.13545746 -7.57679443 22.48185242 -7.37487793 21.80844116 C-6.96376548 20.4413879 -6.55020326 19.07506912 -6.13427734 17.70947266 C-5.49591216 15.61156582 -4.86656065 13.51110301 -4.23828125 11.41015625 C-1.14081317 1.14081317 -1.14081317 1.14081317 0 0 Z " fill="#EF4455" transform="translate(377,110)"/>
</svg>
